# xmcd
#
# Track frame offsets:
#	150
#	12193
#	28431
#	45353
#	66964
#	87111
#	101108
#	116709
#	130300
#	142742
#	158312
#	179825
#	197396
#	213565
#	232211
#	249978
#	270514
#	271466
#
# Disc length: 3841 seconds
# Revision: 0
# Processed by: cddbd v1.5.2PL0 Copyright (c) Steve Scherf et al.
# Submitted via: dBpowerAMP V12.0
#
DISCID=fe0eff12
DTITLE=Garth Brooks - The Ultimate Hits
DYEAR=2007
DGENRE=Country
TTITLE0=Callin' Baton Rouge
TTITLE1=Two Pina Coladas
TTITLE2=The Thunder Rolls
TTITLE3=That Summer
TTITLE4=The River
TTITLE5=Beer Run
TTITLE6=Unanswered Prayers
TTITLE7=Much Too Young (To Feel This Damn Old)
TTITLE8=Workin' For A Livin'
TTITLE9=What She's Doing Now
TTITLE10=When You Come Back To Me Again
TTITLE11=Standing Outside The Fire
TTITLE12=American Honky-Tonk Bar Association
TTITLE13=The Change
TTITLE14=Rodeo
TTITLE15=Wrapped Up In You
TTITLE16=[Silence]
TTITLE17=Leave A Light On
EXTD=
EXTT0=
EXTT1=
EXTT2=
EXTT3=
EXTT4=
EXTT5=
EXTT6=
EXTT7=
EXTT8=
EXTT9=
EXTT10=
EXTT11=
EXTT12=
EXTT13=
EXTT14=
EXTT15=
EXTT16=
EXTT17=
PLAYORDER=
